<?xml version="1.0" encoding="utf-8"?>
<!-- Generator: Adobe Illustrator 19.0.0, SVG Export Plug-In . SVG Version: 6.00 Build 0)  -->
<svg version="1.1" id="Layer_1" xmlns="http://www.w3.org/2000/svg" xmlns:xlink="http://www.w3.org/1999/xlink" x="0px" y="0px"
	 viewBox="0 0 1417.3 283.5" style="enable-background:new 0 0 1417.3 283.5;" xml:space="preserve">
<style type="text/css">
	.st0{fill:#FFFFFF;}
</style>
<path class="st0" d="M551.7,172.1l28.1-77.5l16.2,77.5H551.7z M611.3,245.3h49.4L617.6,38.7h-45.6c-10.3,0-18.9,6-22.7,15.1
	l-80.2,191.4h56.1l11.2-30.8h68.5L611.3,245.3z M471.8,177.8c0.2-54.5-75.4-57.5-74.8-81.9c0.1-7.4,7.2-15.3,22.6-17.3
	c7.7-1,28.8-1.8,52.7,9.2l9.4-43.8c-12.8-4.7-29.4-9.1-50-9.1c-52.8,0-90,28.1-90.3,68.3c-0.3,29.7,26.5,46.3,46.8,56.2
	c20.8,10.1,27.8,16.6,27.7,25.7c-0.1,13.8-16.6,20-32,20.2c-26.9,0.4-42.5-7.3-54.9-13.1l-9.7,45.2c12.5,5.7,35.5,10.7,59.4,11
	C435,248.5,471.7,220.8,471.8,177.8 M326.9,38.7l-44.2,206.5h-53.4l44.2-206.5H326.9z M250.6,38.7L164,245.3h-56.5L65,80.4
	c-2.6-10.1-4.9-13.9-12.7-18.2c-12.8-7-34-13.5-52.7-17.6l1.3-6h90.9c11.6,0,22,7.7,24.6,21.1l22.5,119.5l55.6-140.5H250.6z"/>
<path class="st0" d="M687.1,68.1c3.5-0.6,9.9-1.1,15.7-1.1c8.2,0,21.8,1.3,21.8,12.3c0,6.1-4.7,9.9-10.3,11.1v0.2
	c7.2,1,12.5,5,12.5,12.2c0,12.9-16.3,14.5-25.9,14.5c-5.5,0-11.2-0.4-13.8-0.6V68.1z M695.5,110.8c2.5,0.3,4.4,0.4,7.2,0.4
	c6,0,14.9-1.4,14.9-8.5c0-7.1-7.1-8.7-15.7-8.7h-6.5V110.8z M695.6,88.1h6.7c6.6,0,13.4-1.9,13.4-7.7c0-4.9-4.3-7.2-13.2-7.2
	c-2.9,0-4.7,0.2-6.9,0.4V88.1z"/>
<path class="st0" d="M742.6,93.7c0.2,12.1,7.9,17.1,16.9,17.1c6.4,0,10.3-1.1,13.6-2.6l1.5,6.4c-3.1,1.4-8.5,3.1-16.3,3.1
	c-15.1,0-24.2-9.9-24.2-24.8c0-14.8,8.7-26.5,23.1-26.5c16.1,0,20.3,14.1,20.3,23.2c0,1.8-0.2,3.3-0.3,4.2H742.6z M768.8,87.3
	c0.1-5.7-2.3-14.5-12.4-14.5c-9,0-13,8.3-13.7,14.5H768.8z"/>
<path class="st0" d="M792.4,88.1h4.3c7.5,0,12.6-3.5,12.6-8c0-4.4-4-7.1-9.5-7.1c-4,0-8.4,1.3-11.9,3.4l-2.2-5.5
	c5-3.1,10.7-4.5,16.4-4.5c7.5,0,16.7,3.4,16.7,12.9c0,6.1-5.6,10.1-11.1,11.2v0.2c7.3,0.6,13.4,5.1,13.4,12.3
	c0,10.6-10.8,14.6-21.2,14.6c-5.8,0-11.6-1.5-15.9-4l2.3-6c3.5,1.9,8.3,3.3,13,3.3c7.4,0,12.1-3.5,12.1-8.4c0-6.6-6.9-8.4-14.3-8.4
	h-4.5V88.1z"/>
<path class="st0" d="M869.7,67.5V110l5.1,0.1l-0.5,22.3h-7l-0.4-15.7h-34l-0.4,15.7h-7l-0.4-22.3l4.2-0.1c2.1-3.2,3.8-6.5,4.9-10
	c1.9-6.1,2.8-12.7,2.8-19.6V67.5H869.7z M844.8,82.4c0,6.5-0.9,12.8-2.5,18.3c-1,3.4-2.4,6.4-4,9.2H861V74.3h-16.2V82.4z"/>
<path class="st0" d="M889.5,93.7c0.2,12.1,7.9,17.1,16.9,17.1c6.4,0,10.3-1.1,13.6-2.6l1.5,6.4c-3.2,1.4-8.5,3.1-16.4,3.1
	c-15.1,0-24.2-9.9-24.2-24.8c0-14.8,8.7-26.5,23-26.5c16.1,0,20.3,14.1,20.3,23.2c0,1.8-0.2,3.3-0.3,4.2H889.5z M915.8,87.3
	c0.1-5.7-2.3-14.5-12.4-14.5c-9,0-13,8.3-13.7,14.5H915.8z"/>
<path class="st0" d="M929.2,129.2c2.2-6,5-16.9,6.1-24.3l10-1.1c-2.4,8.7-6.8,20-9.7,24.7L929.2,129.2z"/>
<polygon class="st0" points="1006.5,67.5 1006.5,74.7 985.2,74.7 985.2,116.7 976.4,116.7 976.4,67.5 "/>
<path class="st0" d="M1049.5,67.5V110l5.1,0.1l-0.5,22.3h-7l-0.4-15.7h-34l-0.4,15.7h-7l-0.4-22.3l4.2-0.1c2.1-3.2,3.7-6.5,4.9-10
	c1.9-6.1,2.8-12.7,2.8-19.6V67.5H1049.5z M1024.6,82.4c0,6.5-0.9,12.8-2.5,18.3c-1,3.4-2.5,6.4-4,9.2h22.7V74.3h-16.1V82.4z"/>
<path class="st0" d="M1069.3,93.7c0.2,12.1,7.9,17.1,16.9,17.1c6.4,0,10.2-1.1,13.6-2.6l1.5,6.4c-3.2,1.4-8.6,3.1-16.3,3.1
	c-15.1,0-24.2-9.9-24.2-24.8c0-14.8,8.7-26.5,23.1-26.5c16.1,0,20.3,14.1,20.3,23.2c0,1.8-0.2,3.3-0.3,4.2H1069.3z M1095.6,87.3
	c0.1-5.7-2.4-14.5-12.4-14.5c-9,0-13,8.3-13.7,14.5H1095.6z"/>
<path class="st0" d="M1135.6,68.1c3.4-0.6,9.9-1.1,15.7-1.1c8.2,0,21.8,1.3,21.8,12.3c0,6.1-4.7,9.9-10.3,11.1v0.2
	c7.2,1,12.5,5,12.5,12.2c0,12.9-16.3,14.5-26,14.5c-5.4,0-11.1-0.4-13.8-0.6V68.1z M1144.1,110.8c2.5,0.3,4.4,0.4,7.2,0.4
	c6,0,14.9-1.4,14.9-8.5c0-7.1-7.1-8.7-15.7-8.7h-6.5V110.8z M1144.2,88.1h6.7c6.6,0,13.4-1.9,13.4-7.7c0-4.9-4.3-7.2-13.2-7.2
	c-3,0-4.8,0.2-6.9,0.4V88.1z"/>
<path class="st0" d="M1194.8,67.5v16.8c1.9-0.4,4.8-0.6,8-0.6c10.6,0,21.2,4.4,21.2,16.5c0,5.2-1.9,8.7-5.1,11.4
	c-5.4,4.6-13.3,5.7-19.8,5.7c-5,0-9.5-0.3-13.2-0.7v-49H1194.8z M1194.8,110.5c1.7,0.2,3.7,0.4,6.2,0.4c6.8,0,14.2-2.8,14.2-10.5
	c0-7.9-7.1-10.4-13.8-10.4c-2.5,0-4.7,0.2-6.6,0.6V110.5z M1239,116.7h-8.8V67.5h8.8V116.7z"/>
<path class="st0" d="M732.1,203.8c-2.4,1.2-7.6,2.8-14.2,2.8c-14.8,0-24.5-10.1-24.5-25.1c0-15.1,10.3-26.1,26.4-26.1
	c5.3,0,9.9,1.3,12.4,2.6l-2,6.9c-2.1-1.2-5.5-2.3-10.3-2.3c-11.3,0-17.4,8.3-17.4,18.6c0,11.4,7.3,18.4,17.1,18.4
	c5.1,0,8.4-1.3,11-2.4L732.1,203.8z"/>
<polygon class="st0" points="776.9,156.4 776.9,163.6 761.6,163.6 761.6,205.6 752.7,205.6 752.7,163.6 737.4,163.6 737.4,156.4 "/>
<path class="st0" d="M784.2,172.5c0-6.3-0.2-11.4-0.4-16.1h8l0.4,8.4h0.2c3.7-6,9.5-9.6,17.5-9.6c11.9,0,20.8,10.1,20.8,25
	c0,17.7-10.8,26.4-22.3,26.4c-6.5,0-12.2-2.8-15.2-7.7h-0.2v26.7h-8.9V172.5z M793.1,185.6c0,1.3,0.2,2.5,0.4,3.7
	c1.6,6.2,7,10.5,13.4,10.5c9.4,0,14.9-7.7,14.9-19c0-9.8-5.1-18.3-14.6-18.3c-6.1,0-11.8,4.3-13.5,11.1c-0.3,1.1-0.6,2.4-0.6,3.6
	V185.6z"/>
<path class="st0" d="M846.5,182.7c0.2,12.1,8,17.1,16.9,17.1c6.4,0,10.3-1.1,13.6-2.6l1.5,6.4c-3.1,1.4-8.5,3.1-16.4,3.1
	c-15.1,0-24.2-9.9-24.2-24.8c0-14.8,8.7-26.5,23.1-26.5c16.1,0,20.3,14.1,20.3,23.2c0,1.8-0.2,3.3-0.3,4.2H846.5z M872.7,176.3
	c0.1-5.7-2.3-14.5-12.4-14.5c-9.1,0-13,8.3-13.7,14.5H872.7z"/>
<path class="st0" d="M892.5,156.4h11l8.9,24.8c1.2,3.7,3.3,9.7,4.5,13.5h0.2c1.1-3.6,3.9-11.5,5.8-16.9l7.9-21.4h11.1l3.5,49.2h-8.6
	l-1.1-23.5c-0.3-5.3-0.7-11.6-0.9-17.6h-0.3c-1.3,4.5-2.6,8.4-5.4,15.9l-9.5,24.8h-6.5l-8.7-24.3c-1.6-4.7-3.7-11.8-4.9-16.4h-0.4
	c-0.2,5.8-0.5,12.3-0.8,17.7l-1.2,23.3h-8.2L892.5,156.4z"/>
<path class="st0" d="M964.6,156.4v20.8c0,7.8-0.1,12.7-0.5,19.7l0.3,0.1c3-6,4.7-9.4,7.9-15.2l15.3-25.4h10.5v49.2h-8.5v-20.9
	c0-8,0.2-12.2,0.6-20.1h-0.3c-3.2,6.3-5.3,10.3-8.1,15.2c-4.7,7.6-10.1,17.1-15.3,25.7h-10.3v-49.2H964.6z"/>
<polygon class="st0" points="1045.2,156.4 1045.2,163.6 1029.8,163.6 1029.8,205.6 1020.9,205.6 1020.9,163.6 1005.6,163.6 
	1005.6,156.4 "/>
<path class="st0" d="M1056.1,182.7c0.2,12.1,7.9,17.1,16.9,17.1c6.4,0,10.2-1.1,13.6-2.6l1.6,6.4c-3.2,1.4-8.5,3.1-16.4,3.1
	c-15.1,0-24.2-9.9-24.2-24.8c0-14.8,8.7-26.5,23.1-26.5c16.1,0,20.3,14.1,20.3,23.2c0,1.8-0.2,3.3-0.3,4.2H1056.1z M1082.3,176.3
	c0.1-5.7-2.3-14.5-12.4-14.5c-9.1,0-13,8.3-13.7,14.5H1082.3z"/>
<path class="st0" d="M1136.6,203.8c-2.3,1.2-7.5,2.8-14.1,2.8c-14.8,0-24.5-10.1-24.5-25.1c0-15.1,10.4-26.1,26.4-26.1
	c5.3,0,10,1.3,12.4,2.6l-2.1,6.9c-2.1-1.2-5.5-2.3-10.4-2.3c-11.3,0-17.4,8.3-17.4,18.6c0,11.4,7.3,18.4,17.1,18.4
	c5,0,8.4-1.3,11-2.4L1136.6,203.8z"/>
<path class="st0" d="M1155.2,156.4v16.7c2-0.4,5.5-0.5,8.1-0.5c11.1,0,22.7,3.5,22.7,16.6c0,5.1-2,8.6-5.2,11.3
	c-5.4,4.6-14.1,5.7-21.3,5.7c-5,0-9.5-0.3-13.2-0.7v-49H1155.2z M1155.2,199.4c1.7,0.2,3.7,0.4,6.6,0.4c6.7,0,15.4-2.2,15.4-10.5
	c0-8.5-8.9-10.4-15.5-10.4c-2.3,0-4.4,0.2-6.4,0.5V199.4z"/>
<path class="st0" d="M1254.9,139.8c-2.5,0.9-7,1.7-10.2,2.2c-7.9,1.2-13.7,3.9-17.5,9.2c-3.1,4.5-5,11.1-5.4,16.2h0.3
	c3.1-7.1,10.1-11.1,17.1-11.1c12.1,0,20.9,8.6,20.9,24.3c0,16.1-8.3,26-22.8,26c-17.3,0-22.9-16.6-22.9-32.9
	c0-11.2,2.3-20.3,7.6-27.2c4.8-6.8,11.6-10,21.1-11.6c4-0.6,8.8-1.4,12.2-2.7L1254.9,139.8z M1237.3,163.1c-5.3,0-9,2.7-11.1,6.7
	c-1.6,3-2.4,6.5-2.4,10.5c0,8.1,4,19.8,13.7,19.8c9.9,0,13.5-9.5,13.5-18.6C1251.1,173.4,1247.9,163.1,1237.3,163.1"/>
<path class="st0" d="M1279.5,156.4v16.8c1.9-0.4,4.8-0.6,8-0.6c10.6,0,21.3,4.4,21.3,16.5c0,5.2-1.9,8.7-5.1,11.4
	c-5.4,4.6-13.3,5.7-19.8,5.7c-5,0-9.5-0.3-13.2-0.7v-49H1279.5z M1279.5,199.4c1.7,0.2,3.7,0.4,6.2,0.4c6.8,0,14.2-2.8,14.2-10.5
	c0-7.9-7.1-10.4-13.8-10.4c-2.5,0-4.8,0.2-6.6,0.6V199.4z M1323.8,205.6h-8.9v-49.2h8.9V205.6z"/>
<polygon class="st0" points="1370.9,156.4 1370.9,163.6 1355.6,163.6 1355.6,205.6 1346.7,205.6 1346.7,163.6 1331.4,163.6 
	1331.4,156.4 "/>
<path class="st0" d="M1386.9,156.4v16.7c2-0.4,5.5-0.5,8.1-0.5c11.1,0,22.8,3.5,22.8,16.6c0,5.1-2.1,8.6-5.2,11.3
	c-5.4,4.6-14.1,5.7-21.3,5.7c-5,0-9.5-0.3-13.2-0.7v-49H1386.9z M1386.9,199.4c1.8,0.2,3.7,0.4,6.6,0.4c6.7,0,15.3-2.2,15.3-10.5
	c0-8.5-8.9-10.4-15.6-10.4c-2.3,0-4.4,0.2-6.4,0.5V199.4z"/>
</svg>
